<svg width="276" height="61" viewBox="0 0 276 61" fill="none" xmlns="http://www.w3.org/2000/svg">
<path d="M26.1614 8.21783L3.32227 51.8259H49.0005L26.1614 8.21783Z" fill="#C8102E"/>
<path d="M49.0008 51.8259H26.1616V8.21783L49.0008 51.8259Z" fill="#C8102E"/>
<path d="M59.8821 8.21783H68.5957C76.6202 8.21783 83.1949 14.6961 83.1949 22.603V23.9043C83.1949 31.8112 76.6202 38.2894 68.5957 38.2894H59.8821" fill="#C8102E"/>
<path d="M63.4277 8.21783H52.3455V51.4157H63.4277V8.21783Z" fill="#C8102E"/>
<path d="M111.457 48V13H123.057C125.473 13 127.732 13.4583 129.832 14.375C131.948 15.275 133.807 16.5333 135.407 18.15C137.023 19.75 138.282 21.6083 139.182 23.725C140.098 25.825 140.557 28.0833 140.557 30.5C140.557 32.9167 140.098 35.1833 139.182 37.3C138.282 39.4 137.023 41.2583 135.407 42.875C133.807 44.475 131.948 45.7333 129.832 46.65C127.732 47.55 125.473 48 123.057 48H111.457ZM117.557 41.9H123.057C124.607 41.9 126.065 41.6083 127.432 41.025C128.815 40.425 130.032 39.6083 131.082 38.575C132.132 37.525 132.957 36.3167 133.557 34.95C134.157 33.5667 134.457 32.0833 134.457 30.5C134.457 28.9167 134.157 27.4417 133.557 26.075C132.957 24.7083 132.132 23.5 131.082 22.45C130.032 21.4 128.823 20.5833 127.457 20C126.09 19.4 124.623 19.1 123.057 19.1H117.557V41.9ZM144.66 23H150.76V48H144.66V23ZM147.76 19.775C146.86 19.775 146.101 19.4833 145.485 18.9C144.868 18.3 144.56 17.55 144.56 16.65C144.56 15.7667 144.868 15.025 145.485 14.425C146.101 13.825 146.851 13.525 147.735 13.525C148.618 13.525 149.36 13.825 149.96 14.425C150.576 15.025 150.885 15.7667 150.885 16.65C150.885 17.55 150.585 18.3 149.985 18.9C149.385 19.4833 148.643 19.775 147.76 19.775ZM174.733 23H180.833V48.475C180.833 50.275 180.466 51.9083 179.733 53.375C179 54.8583 178 56.125 176.733 57.175C175.466 58.2417 174.016 59.0583 172.383 59.625C170.75 60.2083 169.033 60.5 167.233 60.5C165.483 60.5 163.8 60.1417 162.183 59.425C160.566 58.7083 159.133 57.725 157.883 56.475C156.65 55.2417 155.708 53.8333 155.058 52.25L160.633 49.725C160.966 50.6417 161.466 51.4417 162.133 52.125C162.816 52.825 163.6 53.3667 164.483 53.75C165.366 54.15 166.283 54.35 167.233 54.35C168.2 54.35 169.125 54.2167 170.008 53.95C170.908 53.6833 171.716 53.2917 172.433 52.775C173.15 52.275 173.708 51.6583 174.108 50.925C174.525 50.2083 174.733 49.3917 174.733 48.475V44.95C173.95 46.05 172.966 46.9417 171.783 47.625C170.6 48.3083 169.233 48.65 167.683 48.65C165.883 48.65 164.2 48.3083 162.633 47.625C161.066 46.9417 159.683 46 158.483 44.8C157.3 43.5833 156.366 42.1833 155.683 40.6C155.016 39.0167 154.683 37.3167 154.683 35.5C154.683 33.6833 155.016 31.9833 155.683 30.4C156.366 28.8167 157.3 27.425 158.483 26.225C159.683 25.0083 161.066 24.0583 162.633 23.375C164.2 22.6917 165.883 22.35 167.683 22.35C169.233 22.35 170.6 22.6917 171.783 23.375C172.966 24.0417 173.95 24.925 174.733 26.025V23ZM167.758 42.775C169.041 42.775 170.175 42.45 171.158 41.8C172.158 41.1333 172.941 40.25 173.508 39.15C174.075 38.0333 174.358 36.8167 174.358 35.5C174.358 34.1667 174.066 32.95 173.483 31.85C172.916 30.75 172.133 29.8667 171.133 29.2C170.15 28.5333 169.025 28.2 167.758 28.2C166.508 28.2 165.366 28.5333 164.333 29.2C163.3 29.85 162.475 30.725 161.858 31.825C161.241 32.925 160.933 34.15 160.933 35.5C160.933 36.85 161.241 38.075 161.858 39.175C162.475 40.275 163.3 41.15 164.333 41.8C165.366 42.45 166.508 42.775 167.758 42.775ZM186.261 23H192.361V48H186.261V23ZM189.361 19.775C188.461 19.775 187.703 19.4833 187.086 18.9C186.47 18.3 186.161 17.55 186.161 16.65C186.161 15.7667 186.47 15.025 187.086 14.425C187.703 13.825 188.453 13.525 189.336 13.525C190.22 13.525 190.961 13.825 191.561 14.425C192.178 15.025 192.486 15.7667 192.486 16.65C192.486 17.55 192.186 18.3 191.586 18.9C190.986 19.4833 190.245 19.775 189.361 19.775ZM211.771 29.1H206.921V48H200.821V29.1H197.121V23H200.821V15.15H206.921V23H211.771V29.1ZM234.555 23H240.655V48H234.555L234.28 44.9C233.596 46.0167 232.688 46.925 231.555 47.625C230.438 48.3083 229.113 48.65 227.58 48.65C225.73 48.65 223.996 48.3 222.38 47.6C220.763 46.9 219.338 45.9333 218.105 44.7C216.888 43.4667 215.93 42.0417 215.23 40.425C214.546 38.8083 214.205 37.075 214.205 35.225C214.205 33.4417 214.53 31.7667 215.18 30.2C215.846 28.6333 216.771 27.2583 217.955 26.075C219.138 24.8917 220.505 23.9667 222.055 23.3C223.605 22.6333 225.271 22.3 227.055 22.3C228.705 22.3 230.18 22.6667 231.48 23.4C232.796 24.1333 233.913 25.0667 234.83 26.2L234.555 23ZM227.43 42.775C228.73 42.775 229.88 42.45 230.88 41.8C231.88 41.15 232.663 40.275 233.23 39.175C233.796 38.0583 234.08 36.8333 234.08 35.5C234.08 34.15 233.796 32.925 233.23 31.825C232.663 30.7083 231.871 29.825 230.855 29.175C229.855 28.525 228.713 28.2 227.43 28.2C226.146 28.2 224.971 28.5333 223.905 29.2C222.855 29.85 222.013 30.725 221.38 31.825C220.763 32.925 220.455 34.15 220.455 35.5C220.455 36.85 220.771 38.075 221.405 39.175C222.038 40.275 222.88 41.15 223.93 41.8C224.996 42.45 226.163 42.775 227.43 42.775ZM251.736 60.5H245.636V23H251.736V26.175C252.553 25.0417 253.553 24.125 254.736 23.425C255.936 22.7083 257.336 22.35 258.936 22.35C260.77 22.35 262.478 22.6917 264.061 23.375C265.645 24.0583 267.036 25.0083 268.236 26.225C269.453 27.425 270.395 28.8167 271.061 30.4C271.745 31.9833 272.086 33.6833 272.086 35.5C272.086 37.3167 271.745 39.025 271.061 40.625C270.395 42.225 269.453 43.6333 268.236 44.85C267.036 46.05 265.645 46.9917 264.061 47.675C262.478 48.3583 260.77 48.7 258.936 48.7C257.336 48.7 255.936 48.35 254.736 47.65C253.553 46.9333 252.553 46.0083 251.736 44.875V60.5ZM258.861 28.225C257.595 28.225 256.461 28.5583 255.461 29.225C254.461 29.875 253.678 30.75 253.111 31.85C252.545 32.95 252.261 34.1667 252.261 35.5C252.261 36.8333 252.545 38.0583 253.111 39.175C253.678 40.275 254.461 41.1583 255.461 41.825C256.461 42.475 257.595 42.8 258.861 42.8C260.145 42.8 261.32 42.475 262.386 41.825C263.453 41.175 264.303 40.3 264.936 39.2C265.57 38.0833 265.886 36.85 265.886 35.5C265.886 34.1667 265.57 32.95 264.936 31.85C264.303 30.75 263.453 29.875 262.386 29.225C261.336 28.5583 260.161 28.225 258.861 28.225Z" fill="#232226"/>
</svg>
